<?xml version="1.0" standalone="no"?>
<!DOCTYPE svg PUBLIC "-//W3C//DTD SVG 20010904//EN"
 "http://www.w3.org/TR/2001/REC-SVG-20010904/DTD/svg10.dtd">
<svg version="1.0" xmlns="http://www.w3.org/2000/svg"
 width="770.000000pt" height="769.000000pt" viewBox="0 0 770.000000 769.000000"
 preserveAspectRatio="xMidYMid meet">

<g transform="translate(0.000000,769.000000) scale(0.100000,-0.100000)"
fill="#000000" stroke="none">
<path d="M3565 7144 c-814 -85 -1492 -402 -2051 -959 -379 -377 -647 -815
-813 -1328 -262 -811 -198 -1695 179 -2462 266 -542 642 -971 1140 -1303 459
-306 980 -490 1530 -541 148 -14 452 -14 600 0 933 86 1775 556 2343 1307 235
312 428 696 537 1075 129 446 160 946 90 1410 -89 581 -325 1117 -697 1582
-103 129 -331 361 -457 465 -406 335 -884 570 -1394 685 -239 54 -368 67 -677
70 -159 2 -308 1 -330 -1z m440 -2679 c234 -60 426 -263 470 -498 28 -149 12
-265 -56 -407 -32 -68 -56 -99 -122 -165 -94 -92 -170 -136 -283 -165 -295
-76 -601 63 -734 333 -180 365 16 795 410 901 73 20 240 20 315 1z m-1195
-927 c104 -364 404 -649 785 -749 77 -21 113 -24 255 -24 140 1 179 4 254 24
197 51 346 134 492 274 143 136 241 297 295 480 l23 77 849 0 850 0 -7 -77
c-10 -111 -59 -349 -101 -486 -136 -450 -362 -826 -699 -1162 -257 -257 -463
-403 -780 -555 -244 -117 -506 -198 -791 -242 -116 -18 -184 -22 -395 -22
-266 -1 -345 6 -566 50 -417 82 -846 283 -1194 560 -120 96 -361 341 -451 459
-305 401 -489 831 -559 1307 -11 73 -20 141 -20 151 0 16 48 17 868 17 l868 0
24 -82z"/>
</g>
</svg>
